<svg xmlns="http://www.w3.org/2000/svg" xmlns:xlink="http://www.w3.org/1999/xlink" viewBox="0 0 511.87 463.76"><defs><style>.a{clip-path:url(#b);}.b{fill:#fff;}.c{fill:#ff9494;}.d{fill:#ffd7d7;}.e{fill:#ff5c5c;}.f{fill:#f11;}.g{fill:rgba(255,255,255,0);}</style><clipPath id="b"><rect width="511.87" height="463.76"/></clipPath></defs><g id="a" class="a"><rect class="g" width="511.87" height="463.76"/><g transform="translate(0 -24.056)"><path class="b" d="M507.875,339.823v32.148a24.06,24.06,0,0,1-23.994,23.994H255.937V379.813a12,12,0,0,0,0-23.994v-16Z"/><path class="c" d="M255.937,355.819a12,12,0,1,1-12,12A11.979,11.979,0,0,1,255.937,355.819Z"/><path class="d" d="M507.875,371.971v15.84A23.666,23.666,0,0,1,483.881,411.8H27.994A23.668,23.668,0,0,1,4,387.811v-15.84a24.065,24.065,0,0,0,23.994,23.994H483.88A24.06,24.06,0,0,0,507.875,371.971Z"/><path class="d" d="M307.845,411.8l16,71.982H188.032l16-71.982Z"/><path class="b" d="M12.2,389.865A23.851,23.851,0,0,1,4,371.971v15.84A23.668,23.668,0,0,0,27.993,411.8h8A23.552,23.552,0,0,1,12.2,389.865Z"/><path class="c" d="M499.673,389.865a23.545,23.545,0,0,1-23.791,21.94h8a23.666,23.666,0,0,0,23.994-23.994v-15.84A23.842,23.842,0,0,1,499.673,389.865Z"/><path class="b" d="M255.937,379.813v16.152H27.993A24.065,24.065,0,0,1,4,371.971V339.823H255.937v16a12,12,0,0,0,0,23.994Z"/><path class="c" d="M507.875,52.049V339.822H4V52.049A24.069,24.069,0,0,1,27.993,28.055H483.88A24.063,24.063,0,0,1,507.875,52.049ZM483.88,315.829V51.889H27.993V315.828H483.88Z"/><path class="d" d="M35.991,28.055h-8A24.069,24.069,0,0,0,4,52.049V339.822h8V52.049A24.069,24.069,0,0,1,35.991,28.055Z"/><path class="e" d="M483.88,28.055h-8a24.063,24.063,0,0,1,23.994,23.994V339.822h8V52.049A24.062,24.062,0,0,0,483.88,28.055Z"/><path class="c" d="M309.626,419.8l-1.781-8H204.028l-1.781,8Z"/><path class="c" d="M301.628,419.8l14.215,63.984h8L309.626,419.8Z"/><path class="b" d="M210.261,419.8l-14.23,63.984h-8l14.23-63.984Z"/><rect class="c" width="15.996" height="31.992" transform="translate(323.917 180.077)"/><path class="c" d="M283.929,172.083l39.99,8v31.992l-39.99,8-31.991-23.994Z"/><path class="e" d="M257.273,192.078l-5.335,4,31.991,23.994,39.99-8v-8l-39.99,8Z"/><path class="d" d="M283.929,172.083l-31.991,23.994,5.335,4,26.656-20,39.99,8v-8Z"/><rect class="c" width="15.996" height="15.996" transform="translate(139.967 268.057)"/><path class="d" d="M235.942,260.061a8,8,0,1,1-8,8A8.024,8.024,0,0,1,235.942,260.061Z"/><path class="c" d="M235.544,188.079h8.4v16h-16v-16Z"/><path class="d" d="M235.942,132.092a8,8,0,1,1,8-8A8.024,8.024,0,0,1,235.942,132.092Z"/><path class="c" d="M155.962,116.1v8h-16v-16h16Z"/><path class="b" d="M323.919,212.073h16V180.081h-16l-39.99-8-31.991,23.994,31.991,23.994ZM27.993,68.108H411.9V316.047H27.993v-16H51.987V84.1H27.993Zm127.969,55.986v-16h-16v16Zm0,159.961v-16h-16v16Zm79.98-23.994a8,8,0,1,0,8,8A8.024,8.024,0,0,0,235.942,260.061Zm8-71.982h-16v16h16Zm-8-55.987a8,8,0,1,0-8-8A8.024,8.024,0,0,0,235.942,132.092Z"/><rect class="d" width="15.996" height="7.998" transform="translate(323.917 180.077)"/><rect class="e" width="15.996" height="7.998" transform="translate(323.917 204.007)"/><rect class="d" width="23.994" height="215.95" transform="translate(27.997 84.107)"/><rect class="d" width="71.982" height="247.94" transform="translate(411.897 68.107)"/><path class="d" d="M483.88,52.112v16H27.993v-16Z"/><rect class="b" width="8.01" height="215.88" transform="translate(27.997 84.107)"/><rect class="c" width="8.01" height="248" transform="translate(475.877 68.047)"/><rect class="b" width="8.01" height="248" transform="translate(411.897 68.047)"/><rect class="b" width="8.01" height="15.934" transform="translate(27.997 52.107)"/><rect class="c" width="8.01" height="15.934" transform="translate(475.877 52.107)"/><path class="f" d="M44.231,64.046a4.03,4.03,0,0,1-4.038-4,3.962,3.962,0,0,1,3.952-4h.086a4,4,0,0,1,0,8Z"/><path class="f" d="M60.228,64.046a4.03,4.03,0,0,1-4.038-4,3.962,3.962,0,0,1,3.952-4h.086a4,4,0,0,1,0,8Z"/><path class="f" d="M76.224,64.046a4.03,4.03,0,0,1-4.038-4,3.962,3.962,0,0,1,3.952-4h.086a4,4,0,0,1,0,8Z"/><path class="f" d="M428.136,168.021a4.03,4.03,0,0,1-4.037-4,3.962,3.962,0,0,1,3.951-4h.086a4,4,0,1,1,0,8Z"/><path class="f" d="M507.875,343.853H4a4,4,0,1,1,0-8H507.874a4,4,0,1,1,0,8Z"/><path class="f" d="M255.937,383.828a16,16,0,1,1,16-16A16.012,16.012,0,0,1,255.937,383.828Zm0-23.995a8,8,0,1,0,8,8A8.008,8.008,0,0,0,255.937,359.833Z"/><path class="f" d="M188,487.818a4.116,4.116,0,0,1-.867-.094,4.005,4.005,0,0,1-3.038-4.772l16-71.982A4,4,0,0,1,207.9,412.7l-16,71.982A4,4,0,0,1,188,487.818Z"/><path class="f" d="M323.873,487.818a4,4,0,0,1-3.9-3.133l-16-71.982a4,4,0,0,1,7.81-1.733l16,71.982a4.006,4.006,0,0,1-3.039,4.772A4.116,4.116,0,0,1,323.873,487.818Z"/><path class="f" d="M335.917,487.818H175.957a4,4,0,0,1,0-8h159.96a4,4,0,0,1,0,8Z"/><path class="f" d="M483.88,319.984H27.993a4,4,0,0,1-4-4V52.049a4,4,0,0,1,4-4H483.88a4,4,0,0,1,4,4V315.985A4,4,0,0,1,483.88,319.984Zm-451.888-8h447.89V56.048H31.992Z"/><path class="f" d="M483.88,399.964H27.993A28.027,28.027,0,0,1,0,371.971V52.049A28.027,28.027,0,0,1,27.993,24.056H483.88a28.028,28.028,0,0,1,27.994,27.993V371.971A28.027,28.027,0,0,1,483.88,399.964ZM27.993,32.054a20.017,20.017,0,0,0-20,20V371.971a20.014,20.014,0,0,0,20,19.995H483.88a20.014,20.014,0,0,0,20-19.995V52.049a20.017,20.017,0,0,0-20-19.995Z"/><path class="f" d="M483.88,415.835H27.993A27.693,27.693,0,0,1,0,387.842v-16a4,4,0,0,1,8,0v16a19.778,19.778,0,0,0,19.995,19.995H483.88a19.778,19.778,0,0,0,20-19.995V371.971a4,4,0,1,1,8,0v15.871A27.692,27.692,0,0,1,483.88,415.835Z"/><path class="f" d="M483.88,72.044H27.993a4,4,0,0,1,0-8H483.88a4,4,0,1,1,0,8Z"/><path class="f" d="M51.987,303.988a4,4,0,0,1-4-4V84.041a4,4,0,0,1,8,0V299.988A4,4,0,0,1,51.987,303.988Z"/><path class="f" d="M411.9,319.984a4,4,0,0,1-4-4V68.045a4,4,0,1,1,8,0V315.984A4,4,0,0,1,411.9,319.984Z"/><path class="f" d="M483.88,136.029H411.9a4,4,0,0,1,0-8H483.88a4,4,0,1,1,0,8Z"/><path class="f" d="M51.987,112.035H27.993a4,4,0,0,1,0-8H51.987a4,4,0,1,1,0,8Z"/><path class="f" d="M51.987,136.029H27.993a4,4,0,1,1,0-8H51.987a4,4,0,1,1,0,8Z"/><path class="f" d="M51.987,160.023H27.993a4,4,0,1,1,0-8H51.987a4,4,0,1,1,0,8Z"/><path class="f" d="M51.987,184.017H27.993a4,4,0,1,1,0-8H51.987a4,4,0,1,1,0,8Z"/><path class="f" d="M51.987,208.011H27.993a4,4,0,1,1,0-8H51.987a4,4,0,1,1,0,8Z"/><path class="f" d="M51.987,232.005H27.993a4,4,0,1,1,0-8H51.987a4,4,0,1,1,0,8Z"/><path class="f" d="M51.987,256H27.993a4,4,0,1,1,0-8H51.987a4,4,0,1,1,0,8Z"/><path class="f" d="M51.987,279.994H27.993a4,4,0,1,1,0-8H51.987a4,4,0,1,1,0,8Z"/><path class="f" d="M51.987,303.988H27.993a4,4,0,1,1,0-8H51.987a4,4,0,1,1,0,8Z"/><path class="f" d="M51.987,88.041H27.993a4,4,0,0,1,0-8H51.987a4,4,0,1,1,0,8Z"/><path class="f" d="M467.884,96.039h-39.99a4,4,0,0,1,0-8h39.99a4,4,0,1,1,0,8Z"/><path class="f" d="M467.884,112.035h-39.99a4,4,0,0,1,0-8h39.99a4,4,0,1,1,0,8Z"/><path class="f" d="M467.884,168.021H443.89a4,4,0,0,1,0-8h23.994a4,4,0,1,1,0,8Z"/><path class="f" d="M428.136,192.015a4.03,4.03,0,0,1-4.037-4,3.962,3.962,0,0,1,3.951-4h.086a4,4,0,1,1,0,8Z"/><path class="f" d="M467.884,192.015H443.89a4,4,0,0,1,0-8h23.994a4,4,0,1,1,0,8Z"/><path class="f" d="M428.136,216.009a4.03,4.03,0,0,1-4.037-4,3.962,3.962,0,0,1,3.951-4h.086a4,4,0,1,1,0,8Z"/><path class="f" d="M467.884,216.009H443.89a4,4,0,0,1,0-8h23.994a4,4,0,1,1,0,8Z"/><path class="f" d="M428.136,240a4.03,4.03,0,0,1-4.037-4,3.962,3.962,0,0,1,3.951-4h.086a4,4,0,1,1,0,8Z"/><path class="f" d="M467.884,240H443.89a4,4,0,0,1,0-8h23.994a4,4,0,1,1,0,8Z"/><path class="f" d="M428.136,264a4.03,4.03,0,0,1-4.037-4,3.962,3.962,0,0,1,3.951-4h.086a4,4,0,1,1,0,8Z"/><path class="f" d="M467.884,264H443.89a4,4,0,0,1,0-8h23.994a4,4,0,1,1,0,8Z"/><path class="f" d="M428.136,287.992a4.03,4.03,0,0,1-4.037-4,3.962,3.962,0,0,1,3.951-4h.086a4,4,0,1,1,0,8Z"/><path class="f" d="M467.884,287.992H443.89a4,4,0,0,1,0-8h23.994a4,4,0,1,1,0,8Z"/><path class="f" d="M235.544,192.015a4.007,4.007,0,0,1-3.976-3.6,75.648,75.648,0,0,0-75.606-68.378,4,4,0,0,1,0-8,83.63,83.63,0,0,1,83.573,75.587A4.007,4.007,0,0,1,235.942,192C235.81,192.007,235.677,192.015,235.544,192.015Z"/><path class="f" d="M156.157,279.994a4,4,0,0,1,0-8,75.654,75.654,0,0,0,75.614-68.374,4.093,4.093,0,0,1,4.374-3.585,4.006,4.006,0,0,1,3.593,4.374A83.638,83.638,0,0,1,156.157,279.994Z"/><path class="f" d="M283.929,224.007a3.983,3.983,0,0,1-2.4-.8L249.54,199.212a3.995,3.995,0,0,1,0-6.4l31.993-23.994a4.008,4.008,0,0,1,3.178-.723l39.99,8a4,4,0,0,1,3.219,3.921V212.01a4,4,0,0,1-3.219,3.921l-39.99,8A4.068,4.068,0,0,1,283.929,224.007ZM258.6,196.014l26.3,19.722,35.023-7V183.3l-35.023-7Z"/><path class="f" d="M323.919,224.007a4,4,0,0,1-4-4V172.02a4,4,0,1,1,8,0v47.988A4,4,0,0,1,323.919,224.007Z"/><path class="f" d="M291.927,200.013H251.938a4,4,0,0,1,0-8h39.989a4,4,0,1,1,0,8Z"/><path class="f" d="M235.942,191.96a4,4,0,0,1-4-4V132.029a4,4,0,1,1,8,0v55.932A4,4,0,0,1,235.942,191.96Z"/><path class="f" d="M235.942,136.029a12,12,0,1,1,12-12A12.01,12.01,0,0,1,235.942,136.029Zm0-16a4,4,0,1,0,4,4A4,4,0,0,0,235.942,120.033Z"/><path class="f" d="M235.942,263.974a4,4,0,0,1-4-4V204.043a4,4,0,1,1,8,0v55.932A4,4,0,0,1,235.942,263.974Z"/><path class="f" d="M235.942,279.97a12,12,0,1,1,12-12A12.01,12.01,0,0,1,235.942,279.97Zm0-16a4,4,0,1,0,4,4A4,4,0,0,0,235.942,263.974Z"/><path class="f" d="M339.916,216.009h-16a4,4,0,0,1-4-4V180.018a4,4,0,0,1,4-4h16a4,4,0,0,1,4,4V212.01A4,4,0,0,1,339.916,216.009Zm-12-8h8V184.017h-8Z"/><path class="f" d="M155.962,128.031h-16a4,4,0,0,1-4-4v-16a4,4,0,0,1,4-4h16a4,4,0,0,1,4,4v16A4,4,0,0,1,155.962,128.031Zm-12-8h8v-8h-8Z"/><path class="f" d="M155.962,287.992h-16a4,4,0,0,1-4-4V268a4,4,0,0,1,4-4h16a4,4,0,0,1,4,4v16A4,4,0,0,1,155.962,287.992Zm-12-8h8v-8h-8Z"/><path class="f" d="M243.94,208.011h-16a4,4,0,0,1-4-4v-16a4,4,0,0,1,4-4h16a4,4,0,0,1,4,4v16A4,4,0,0,1,243.94,208.011Zm-12-8h8v-8h-8Z"/></g></g></svg>