<svg xmlns="http://www.w3.org/2000/svg" xmlns:xlink="http://www.w3.org/1999/xlink" viewBox="0 0 511.88 463.89"><defs><style>.a{clip-path:url(#b);}.b{fill:#fff;}.c{fill:#ff9494;}.d{fill:#ffd7d7;}.e{fill:#94c1ff;}.f{fill:#ff5c5c;}.g{fill:#f11;}.h{fill:rgba(255,255,255,0);}</style><clipPath id="b"><rect width="511.88" height="463.89"/></clipPath></defs><g id="a" class="a"><rect class="h" width="511.88" height="463.89"/><g transform="translate(0 -23.994)"><path class="b" d="M507.875,339.839v32.148a24.06,24.06,0,0,1-23.994,23.994H255.937V379.829a12,12,0,0,0,0-23.994v-16Z"/><path class="c" d="M255.937,355.835a12,12,0,1,1-12,12A11.979,11.979,0,0,1,255.937,355.835Z"/><path class="d" d="M507.875,371.987v15.84a23.666,23.666,0,0,1-23.994,23.994H27.994A23.665,23.665,0,0,1,4,387.827v-15.84a24.063,24.063,0,0,0,23.994,23.994H483.88A24.059,24.059,0,0,0,507.875,371.987Z"/><path class="d" d="M307.845,411.822l16,71.982H188.032l16-71.982Z"/><path class="b" d="M12.2,389.888a23.865,23.865,0,0,1-8.2-17.9v15.84a23.665,23.665,0,0,0,23.994,23.994h8A23.554,23.554,0,0,1,12.2,389.888Z"/><path class="e" d="M499.673,389.888a23.545,23.545,0,0,1-23.791,21.933h8a23.666,23.666,0,0,0,23.994-23.994v-15.84A23.844,23.844,0,0,1,499.673,389.888Z"/><path class="b" d="M255.937,379.829v16.152H27.993A24.063,24.063,0,0,1,4,371.987V339.84H255.937v16a12,12,0,1,0,0,23.993Z"/><path class="c" d="M507.875,52.069v287.77H4V52.069A24.066,24.066,0,0,1,27.993,28.075H483.88A24.063,24.063,0,0,1,507.875,52.069ZM483.88,315.845V51.909H27.993V315.844Z"/><path class="d" d="M35.991,28.075h-8A24.066,24.066,0,0,0,4,52.069v287.77h8V52.069A24.066,24.066,0,0,1,35.991,28.075Z"/><path class="f" d="M483.88,28.075h-8a24.063,24.063,0,0,1,23.994,23.994v287.77h8V52.069A24.062,24.062,0,0,0,483.88,28.075Z"/><path class="c" d="M309.626,419.819l-1.781-8H204.028l-1.777,8Z"/><path class="c" d="M301.621,419.819,315.844,483.8h8l-14.223-63.984Z"/><path class="b" d="M210.253,419.819,196.03,483.8h-8l14.223-63.984Z"/><rect class="b" width="455.89" height="247.86" transform="translate(27.997 67.988)"/><rect class="d" width="455.89" height="16.07" transform="translate(27.997 51.909)"/><rect class="c" width="407.9" height="63.984" transform="translate(51.987 91.978)"/><path class="d" d="M483.88,483.882H395.9a23.668,23.668,0,0,1-23.994-23.994v-16A24.079,24.079,0,0,0,395.9,467.73H483.88a24.047,24.047,0,0,0,23.994-23.682v15.84A23.666,23.666,0,0,1,483.88,483.882Z"/><path class="b" d="M380.062,461.527a23.637,23.637,0,0,1-8.154-17.636v16A23.668,23.668,0,0,0,395.9,483.881h8A23.568,23.568,0,0,1,380.062,461.527Z"/><path class="c" d="M499.72,461.527a23.568,23.568,0,0,1-23.838,22.354h8a23.667,23.667,0,0,0,23.994-23.994v-16A23.63,23.63,0,0,1,499.72,461.527Z"/><path class="b" d="M420.13,363.911a8,8,0,1,1-8-8A8.018,8.018,0,0,1,420.13,363.911Z"/><path class="d" d="M435.892,371.753l11.764,17.83L443.89,395.9H419.9Z"/><path class="d" d="M467.884,355.757,491.878,395.9H443.89l3.766-6.321Z"/><path class="c" d="M440.126,443.892a8,8,0,1,1-8,8A8.019,8.019,0,0,1,440.126,443.892Z"/><path class="b" d="M491.878,339.917H387.9V395.9H491.878Zm0-63.985H387.9V323.92H491.879V275.932ZM395.9,243.781h87.979a24.063,24.063,0,0,1,23.994,24V444.048a24.047,24.047,0,0,1-23.994,23.682H395.9a24.079,24.079,0,0,1-23.994-23.838V267.779A24.064,24.064,0,0,1,395.9,243.781Zm52.223,208.108a8,8,0,1,0-8,8A8.019,8.019,0,0,0,448.125,451.889Z"/><path class="c" d="M412.132,371.909a8,8,0,1,0-8-8A8.018,8.018,0,0,0,412.132,371.909Zm23.76-.156-16,24.15H387.9V339.917H491.879V395.9l-23.994-40.146-20.229,33.827Z"/><rect class="c" width="103.97" height="47.988" transform="translate(387.907 275.938)"/><path class="c" d="M91.978,203.951a16,16,0,1,0,16,16A15.942,15.942,0,0,0,91.978,203.951Zm-39.991-24H243.94V291.93h-8l-51.987-79.98-36.229,55.666-15.758-23.6L99.976,291.93H51.987Z"/><path class="b" d="M91.978,203.951a16,16,0,1,1-16,16A15.942,15.942,0,0,1,91.978,203.951Z"/><path class="d" d="M147.726,267.615l-15.758,24.313H99.976l31.992-47.91Z"/><path class="d" d="M183.955,211.949l51.987,79.979H131.968l15.758-24.313Z"/><rect class="d" width="7.998" height="47.988" transform="translate(387.907 275.938)"/><rect class="f" width="7.998" height="47.988" transform="translate(483.877 275.938)"/><rect class="d" width="7.998" height="55.57" transform="translate(387.907 339.918)"/><rect class="f" width="7.998" height="55.57" transform="translate(483.877 339.918)"/><rect class="d" width="7.998" height="111.97" transform="translate(51.987 179.958)"/><rect class="f" width="7.998" height="111.97" transform="translate(235.937 179.958)"/><rect class="f" width="7.998" height="63.984" transform="translate(451.887 91.978)"/><rect class="d" width="7.998" height="63.984" transform="translate(51.987 91.978)"/><path class="g" d="M44.228,63.984a4.032,4.032,0,0,1-4.038-4,3.964,3.964,0,0,1,3.96-4h.078a4,4,0,1,1,0,8Z"/><path class="g" d="M60.224,63.984a4.032,4.032,0,0,1-4.038-4,3.964,3.964,0,0,1,3.96-4h.078a4,4,0,0,1,0,8Z"/><path class="g" d="M76.22,63.984a4.032,4.032,0,0,1-4.038-4,3.964,3.964,0,0,1,3.96-4h.078a4,4,0,1,1,0,8Z"/><path class="g" d="M363.91,343.759H4a4,4,0,1,1,0-8H363.91a4,4,0,1,1,0,8Z"/><path class="g" d="M255.937,383.75a16,16,0,1,1,16-16A16.014,16.014,0,0,1,255.937,383.75Zm0-23.995a8,8,0,1,0,8,8A8.006,8.006,0,0,0,255.937,359.755Z"/><path class="g" d="M188.036,487.724a4.162,4.162,0,0,1-.875-.094,4.011,4.011,0,0,1-3.034-4.78L200.1,411.133a4.05,4.05,0,0,1,3.925-3.312,3.926,3.926,0,0,1,4,3.921v.156a4.062,4.062,0,0,1-.094.874l-16,71.819A4,4,0,0,1,188.036,487.724Z"/><path class="g" d="M323.841,487.724a4.008,4.008,0,0,1-3.9-3.133l-16-71.818a4.125,4.125,0,0,1-.094-.874,4.064,4.064,0,0,1,4-4.077,3.93,3.93,0,0,1,3.984,3.569l15.918,71.459a4.009,4.009,0,0,1-3.031,4.78A4.174,4.174,0,0,1,323.841,487.724Z"/><path class="g" d="M335.917,487.724H175.957a4,4,0,0,1,0-8h159.96a4,4,0,0,1,0,8Z"/><path class="g" d="M483.88,471.728H395.9a28.059,28.059,0,0,1-27.992-27.813V267.779a28.027,28.027,0,0,1,27.992-28H483.88a28.029,28.029,0,0,1,27.994,28V443.736A28.163,28.163,0,0,1,483.88,471.728ZM395.9,247.779a20.017,20.017,0,0,0-19.994,20V443.735A20.063,20.063,0,0,0,395.9,463.73h87.979a20.066,20.066,0,0,0,20-19.729V267.779a20.018,20.018,0,0,0-20-20Z"/><path class="g" d="M491.878,327.919H387.9a4,4,0,0,1-4-4V275.932a4,4,0,0,1,4-4H491.879a4,4,0,0,1,4,4V323.92A4,4,0,0,1,491.878,327.919Zm-99.974-8h95.977v-39.99H391.9Z"/><path class="g" d="M491.878,399.9H387.9a4,4,0,0,1-4-4V339.917a4,4,0,0,1,4-4H491.879a4,4,0,0,1,4,4V395.9A4,4,0,0,1,491.878,399.9Zm-99.974-8h95.977V343.917H391.9Z"/><path class="g" d="M451.888,263.935H427.894a4,4,0,0,1,0-8h23.994a4,4,0,1,1,0,8Z"/><path class="g" d="M476.117,295.927H404.135a4,4,0,0,1,0-8h71.982a4,4,0,1,1,0,8Z"/><path class="g" d="M459.886,311.923H420.38a4,4,0,0,1,0-8h39.506a4,4,0,1,1,0,8Z"/><path class="g" d="M440.126,463.887a12,12,0,1,1,12-12A12.017,12.017,0,0,1,440.126,463.887Zm0-16a4,4,0,1,0,4,4A4.007,4.007,0,0,0,440.126,447.891Z"/><path class="g" d="M491.878,415.9H387.9a4,4,0,0,1,0-8H491.879a4,4,0,1,1,0,8Z"/><path class="g" d="M491.878,431.895H387.9a4,4,0,0,1,0-8H491.879a4,4,0,1,1,0,8Z"/><path class="g" d="M443.89,399.9a3.963,3.963,0,0,1-2.045-.562,4,4,0,0,1-1.391-5.483L464.448,353.7a4.013,4.013,0,0,1,3.436-1.938h0a4.006,4.006,0,0,1,3.438,1.945l23.994,40.153a4,4,0,1,1-6.873,4.092l-20.559-34.4-20.557,34.4A4.011,4.011,0,0,1,443.89,399.9Z"/><path class="g" d="M419.9,399.9a4,4,0,0,1-3.334-6.2l16-24.158a4,4,0,0,1,3.334-1.789h0a4,4,0,0,1,3.344,1.8l11.754,17.831a4,4,0,1,1-6.678,4.4L435.884,379l-12.652,19.1A3.978,3.978,0,0,1,419.9,399.9Z"/><path class="g" d="M131.964,295.927a3.958,3.958,0,0,1-2.172-.641,4,4,0,0,1-1.179-5.529L180.6,209.765a4,4,0,0,1,3.351-1.816h0a4,4,0,0,1,3.354,1.82l51.987,79.98a4,4,0,1,1-6.71,4.357L183.95,219.281,135.321,294.1A3.971,3.971,0,0,1,131.964,295.927Z"/><path class="g" d="M99.972,295.927a4,4,0,0,1-3.323-6.217L128.641,241.8a4.158,4.158,0,0,1,6.654,0l15.758,23.592a4,4,0,0,1-6.654,4.451l-12.431-18.62L103.3,294.146A4,4,0,0,1,99.972,295.927Z"/><path class="g" d="M412.132,375.909a12,12,0,1,1,12-12A12.015,12.015,0,0,1,412.132,375.909Zm0-16a4,4,0,1,0,4,4A4.007,4.007,0,0,0,412.132,359.913Z"/><path class="g" d="M91.978,239.941a19.995,19.995,0,1,1,20-19.995A20.019,20.019,0,0,1,91.978,239.941Zm0-31.992a12,12,0,1,0,12,12A12.01,12.01,0,0,0,91.978,207.949Z"/><path class="g" d="M483.88,71.982H27.993a4,4,0,0,1,0-8H483.88a4,4,0,1,1,0,8Z"/><path class="g" d="M459.886,159.96H51.987a4,4,0,0,1-4-4V91.978a4,4,0,0,1,4-4h407.9a4,4,0,0,1,4,4v63.984A4,4,0,0,1,459.886,159.96Zm-403.9-8h399.9V95.977H55.986Z"/><path class="g" d="M243.94,295.927H51.987a4,4,0,0,1-4-4V179.956a4,4,0,0,1,4-4H243.94a4,4,0,0,1,4,4V291.93A4,4,0,0,1,243.94,295.927Zm-187.954-8H239.941V183.956H55.986Z"/><path class="g" d="M459.886,215.947H267.933a4,4,0,0,1,0-8H459.886a4,4,0,1,1,0,8Z"/><path class="g" d="M459.886,191.954H267.933a4,4,0,0,1,0-8H459.886a4,4,0,1,1,0,8Z"/><path class="g" d="M363.91,239.941H267.933a4,4,0,0,1,0-8H363.91a4,4,0,1,1,0,8Z"/><path class="g" d="M355.912,263.935H267.933a4,4,0,0,1,0-8h87.979a4,4,0,1,1,0,8Z"/><path class="g" d="M355.912,287.93H267.933a4,4,0,0,1,0-8h87.979a4,4,0,1,1,0,8Z"/><path class="g" d="M507.875,55.986a4,4,0,0,1-4-4,19.554,19.554,0,0,0-20-20H27.993a19.556,19.556,0,0,0-20,20,4,4,0,1,1-8,0A27.7,27.7,0,0,1,27.993,23.994H483.88a27.7,27.7,0,0,1,27.994,27.993A4,4,0,0,1,507.875,55.986Z"/><path class="g" d="M363.91,415.9H27.993A27.7,27.7,0,0,1,0,387.9v-16a4,4,0,0,1,8,0v16A19.554,19.554,0,0,0,27.993,407.9H363.91a4,4,0,1,1,0,8Z"/><path class="g" d="M363.91,399.824H27.993A27.755,27.755,0,0,1,0,371.932v-16.1a4,4,0,0,1,8,0v16a19.623,19.623,0,0,0,19.995,19.995H363.91a4,4,0,1,1,0,8Z"/><path class="g" d="M4,359.833a4,4,0,0,1-4-4V51.987a4,4,0,1,1,8,0V355.835A4,4,0,0,1,4,359.833Z"/><path class="g" d="M507.875,247.939a4,4,0,0,1-4-4V51.987a4,4,0,1,1,8,0V243.94A4,4,0,0,1,507.875,247.939Z"/><path class="g" d="M483.88,55.986H27.993a4,4,0,1,1,0-8H483.88a4,4,0,1,1,0,8Z"/><path class="g" d="M363.91,319.922H27.993a4,4,0,1,1,0-8H363.91a4,4,0,1,1,0,8Z"/><path class="g" d="M27.993,319.922a4,4,0,0,1-4-4V51.987a4,4,0,1,1,8,0V315.923A4,4,0,0,1,27.993,319.922Z"/><path class="g" d="M483.88,239.941a4,4,0,0,1-4-4V51.987a4,4,0,1,1,8,0V235.942A4,4,0,0,1,483.88,239.941Z"/><path class="g" d="M483.88,487.88H395.9a27.692,27.692,0,0,1-27.992-27.993v-16a4,4,0,1,1,8,0v16A19.551,19.551,0,0,0,395.9,479.882H483.88a19.552,19.552,0,0,0,20-19.995v-15.84a4,4,0,1,1,8,0v15.84A27.692,27.692,0,0,1,483.88,487.88Z"/><path class="g" d="M427.894,127.969H83.979a4,4,0,0,1,0-8H427.894a4,4,0,1,1,0,8Z"/></g></g></svg>